<svg version="1" xmlns="http://www.w3.org/2000/svg" width="426.667" height="426.667" viewBox="0 0 320.000000 320.000000"><path d="M122.5 22.3c-5.6 2.6-11 8.2-13.2 13.5-2.7 6.5-3.4 14.4-1.8 19.8 1.3 4.3 1.3 5.1 0 6.3-1.3 1.3-1.7 1.2-3.5-.4-1.6-1.4-3-1.7-6.9-1.2-11.7 1.4-19.6 9.1-24.5 23.8-3 8.9-4.2 21.5-2.7 27.9 1.3 5.7 0 7.3-6.1 7.2-2.4 0-5.3.6-6.5 1.4-2.1 1.3-2.3 2.2-2.3 10.2 0 4.8-.4 10.3-.9 12.2-.6 1.9-1.1 5.7-1.3 8.5l-.3 4.9 7 1.7c4 1 5.8 1.7 4.3 1.8-1.5 0-3.9 1.2-5.5 2.5l-2.7 2.4 1.2 11.8c.7 6.6 1.5 14.6 1.9 17.8.4 4.4.3 5.7-.6 5.2-3-1.9-6.6 6.8-4.1 9.8.9 1.1.9 2 0 3.6-.6 1.2-.8 2.9-.4 3.8.4.9.6 2.3.5 3.1-.2.8.3 2.5 1 3.7.9 1.8.8 4.1-.6 11.6-.9 5.1-1.9 14.5-2.2 20.8-.6 12.4-.9 13.2-9 25.7-5.1 8-8.3 15.4-8.3 19.6 0 2.6-1.2 6-3.5 10.1-1.9 3.5-3.5 6.8-3.5 7.5 0 .8 4.4 1.1 16.7.9l16.6-.3 1.7-3c4.2-7.6 7.1-16.7 6.5-20.4-.7-4.5 2-11.1 5.8-14.1 1.4-1.1 3.2-3.6 3.8-5.5.7-1.9 2.2-3.8 3.2-4.1 2.2-.7 4.7-6.1 4.7-10.1.1-4.2 7.3-21.5 10.8-25.9 1.7-2.2 3.5-5.4 3.8-7.2l.7-3.3 2.8 5c2.5 4.2 3.4 5 6.8 5.6 3.7.6 4.3 1.3 13.1 14.6 9.6 14.4 9.8 14.5 16.3 14 4-.3 5.6 2.3 5.7 9.2 0 4.4-.5 6.6-2.1 8.8-1.9 2.7-2 3.4-.9 14.6.6 6.5 1.6 14.2 2.2 17l1.3 5.3h13.8c15.9 0 15.4.3 14.9-9.5-.6-10.9-.6-11.9.6-21.5 2.5-18.8 1.3-37-2.3-37-.7 0-3.1-4.8-5.5-10.8-7.7-19.5-14.1-30.9-22.1-39.7-4.3-4.8-6.8-13-4.9-16.5.8-1.5 1.7-1.9 2.8-1.4 4.4 1.9 6.5 1 8.9-3.7 2-3.8 2.6-7.1 3.5-20 1.2-17.4.7-20.2-4.6-22.7-2.2-1.1-2.6-1.8-2.1-3.5.4-1.2.8-2.9.9-3.7.3-2.4 1.3-2.3 8 1.5 9.2 5.1 17.3 8.2 23.7 9 5.5.7 5.6.6 10.3-3.4 2.6-2.3 5-4.1 5.4-4.1 1.2 0 3.9-5.2 4.7-9 1.9-9.7 2.4-10.8 5.5-11.5 1.7-.4 3-.7 3-.8 0-.1-.7-2.7-1.5-5.7-2.5-9.5-2.1-12.5 2.5-16.6 2.2-2 4-4.1 4-4.8 0-2.6 5.6-3.6 20.2-3.6 13.4 0 14.8-.2 14.8-1.8 0-1.5 1.4-1.7 15.8-1.7 8.6 0 16.2.2 16.7.4.6.2 3.6.3 6.8.2 5.3-.1 5.7-.3 5.7-2.5 0-2.3-.4-2.4-6.2-2.8-3.5-.2-6.8 0-7.4.4-.7.5-5.9.7-11.5.6l-10.4-.3.3-2.9c.3-2.4 0-2.7-1.4-2.2-2.5 1-3.4-1.1-3.4-7.7 0-8.2-1.9-7-2.2 1.5-.2 4.6-.7 7.3-1.5 7.6-.8.2-1.3-.5-1.3-1.7 0-2.1-.2-2.1-38-2.1-33.1 0-38-.2-38-1.5 0-.8-.9-1.5-2-1.5-1.4 0-2-.7-2-2.3 0-1.2-.4-2.8-.9-3.6-.7-1.1-1.1-.4-1.7 2.5-.5 2.1-.8 4.3-.9 4.9 0 .5-.9.9-1.8.7-1-.2-2.4.1-3.1.7-.7.6-3.7 1.3-6.7 1.7l-5.4.6-.3-5.1c-.3-5-.3-5.1 3.5-6.6 2-.9 4.1-2.1 4.5-2.8 1.3-2 .8-11.9-.7-16.2-.8-2.2-1.5-4.9-1.5-6-.1-1.4-2.3-3.2-7.8-6.4-6.6-3.7-8.7-4.4-14.7-4.8-5.9-.3-7.8 0-12 2zm71 67.7c0 2.3-.4 2.5-5.5 2.7-4.4.2-5 0-3.1-.7 1.4-.6 2.1-1.6 1.8-2.4-.8-2 .3-2.7 3.8-2.4 2.5.2 3 .7 3 2.8zm-1.5 4.5c0 .7-7.1 10-7.9 10.2-1.1.5-5-7.7-4.4-9.3.4-1 2.2-1.4 6.4-1.4 3.2 0 5.9.2 5.9.5z"/></svg>